<svg width="180" height="51" viewBox="0 0 180 51" fill="none" xmlns="http://www.w3.org/2000/svg">
<g id="Group 3702">
<g id="Group 3701">
<path id="tere" d="M74.8804 20.0471H68.942V50H62.1553V20.0471H57.261V13.8477H62.1553V1.70989H68.942V13.8477H74.8804V20.0471ZM114.579 31.467C114.579 32.5982 114.514 33.7293 114.383 34.8604H84.4303C85.1264 37.7317 86.5403 40.1027 88.672 41.9734C90.8473 43.8006 93.3923 44.7142 96.3071 44.7142C98.4388 44.7142 100.44 44.1704 102.311 43.0828C104.225 41.9952 105.661 40.516 106.618 38.6453H113.404C112.012 42.3432 109.75 45.3233 106.618 47.5855C103.485 49.8042 99.9615 50.9136 96.0461 50.9136C90.956 50.9136 86.6056 49.0211 82.9947 45.2362C79.4273 41.4513 77.6436 36.9921 77.6436 31.8586C77.6436 26.5945 79.4273 22.1135 82.9947 18.4157C86.5621 14.7178 90.956 12.8688 96.1766 12.8688C101.267 12.8688 105.595 14.696 109.163 18.3504C112.774 22.0048 114.579 26.377 114.579 31.467ZM107.792 29.6398C107.618 26.6815 106.357 24.18 104.007 22.1353C101.702 20.0906 99.0696 19.0682 96.1113 19.0682C93.153 19.0682 90.4992 20.0906 88.15 22.1353C85.8442 24.18 84.6044 26.6815 84.4303 29.6398H107.792ZM137.001 19.8513C135.305 19.8513 133.673 20.2864 132.107 21.1564C129.453 22.5051 128.126 25.5287 128.126 30.2272V50H121.34V13.8477H127.67V17.1105H127.8C129.714 14.4132 132.781 12.9993 137.001 12.8688V19.8513ZM176.841 31.467C176.841 32.5982 176.775 33.7293 176.645 34.8604H146.692C147.388 37.7317 148.802 40.1027 150.934 41.9734C153.109 43.8006 155.654 44.7142 158.569 44.7142C160.701 44.7142 162.702 44.1704 164.572 43.0828C166.487 41.9952 167.922 40.516 168.879 38.6453H175.666C174.274 42.3432 172.012 45.3233 168.879 47.5855C165.747 49.8042 162.223 50.9136 158.308 50.9136C153.218 50.9136 148.867 49.0211 145.256 45.2362C141.689 41.4513 139.905 36.9921 139.905 31.8586C139.905 26.5945 141.689 22.1135 145.256 18.4157C148.824 14.7178 153.218 12.8688 158.438 12.8688C163.528 12.8688 167.857 14.696 171.424 18.3504C175.035 22.0048 176.841 26.377 176.841 31.467ZM170.054 29.6398C169.88 26.6815 168.618 24.18 166.269 22.1353C163.963 20.0906 161.331 19.0682 158.373 19.0682C155.415 19.0682 152.761 20.0906 150.412 22.1353C148.106 24.18 146.866 26.6815 146.692 29.6398H170.054Z" fill="#75BF7A"/>
<g id="Group">
<path id="Vector" d="M48.1393 16.4156L48.0128 16.1073L47.7779 16.3435L43.0983 21.0479L43.009 21.1376L43.0411 21.26C43.4323 22.7514 43.6281 24.2924 43.6281 25.8834C43.6281 36.2098 35.2346 44.6034 24.9082 44.6034C14.5568 44.6034 6.1635 36.2097 6.1635 25.8834C6.1635 24.2672 6.3594 22.7015 6.75049 21.2105L6.7826 21.0881L6.69336 20.9984L2.01379 16.294L1.77804 16.057L1.65209 16.3667C0.453388 19.3135 -0.221186 22.5109 -0.221186 25.8834C-0.221186 39.7224 11.0444 50.9881 24.8834 50.9881C38.7224 50.9881 49.9881 39.7224 49.9881 25.8834C49.9881 22.5368 49.3387 19.3391 48.1393 16.4156ZM40.4469 15.4838L40.5967 15.7073L40.787 15.517L45.0456 11.2583L45.1805 11.1235L45.067 10.9703C40.4962 4.80102 33.1522 0.778814 24.8834 0.778814C16.6397 0.778814 9.29563 4.77597 4.72469 10.9455L4.61116 11.0987L4.74601 11.2336L9.00466 15.4922L9.19493 15.6825L9.34478 15.459C12.1835 11.2253 16.7106 8.2157 21.9465 7.38368C22.9004 7.23696 23.8793 7.1635 24.8834 7.1635C25.8876 7.1635 26.8666 7.23696 27.8205 7.38369C33.0805 8.21564 37.6078 11.2497 40.4469 15.4838Z" fill="#75BF7A" stroke="#75BF7A" stroke-width="0.442372"/>
</g>
</g>
<path id="Vector_2" d="M27.8623 26.6944H28.0835V26.4732L28.0835 3.422V3.20081H27.8623L21.92 3.20081L21.6988 3.20081V3.422L21.6988 26.4732V26.6944H21.92H27.8623Z" fill="#75BF7A" stroke="#75BF7A" stroke-width="0.442372"/>
</g>
</svg>
